<?xml version="1.0" encoding="UTF-8"?> <svg xmlns="http://www.w3.org/2000/svg" width="274" height="102" viewBox="0 0 274 102" fill="none"><path d="M41.0879 0L0 102L41.0879 80.2319L82.1758 102L41.0879 0ZM41.0879 75.0414L38.9328 76.1882L8.94266 92.0816L41.0879 12.2923L73.213 92.0816L43.2229 76.1882L41.0879 75.0414Z" fill="url(#paint0_linear)"></path><path d="M41.0879 27.5018L14.3404 84.8189L41.0879 70.4947L67.2512 84.2556L41.0879 27.5018ZM41.0677 65.3042L38.9126 66.4509L24.3305 74.2568L41.0476 38.4059L57.4022 73.8947L43.2027 66.4308L41.0677 65.3042Z" fill="url(#paint1_linear)"></path><path d="M41.088 50.4366L30.4132 65.3242L41.088 59.5905L51.7426 64.7609L41.088 50.4366Z" fill="url(#paint2_linear)"></path><path d="M109.106 24.5042V28.5681H104.755V40.8604H99.6192V28.5681H95.309V24.5042H109.106Z" fill="url(#paint3_linear)"></path><path d="M118.732 40.8805L115.63 35.006V40.8805H110.494V24.5042H118.128C119.457 24.5042 120.585 24.7456 121.532 25.2083C122.478 25.6711 123.183 26.3149 123.646 27.1196C124.11 27.9243 124.351 28.8498 124.351 29.8557C124.351 30.9421 124.049 31.9279 123.445 32.7728C122.841 33.6178 121.955 34.2214 120.827 34.6036L124.392 40.8604H118.732V40.8805ZM117.665 31.5859C118.168 31.5859 118.531 31.4652 118.772 31.2439C119.014 31.0226 119.135 30.6604 119.135 30.1977C119.135 29.7752 119.014 29.4332 118.752 29.1717C118.49 28.9302 118.128 28.8095 117.644 28.8095H115.61V31.5859H117.665Z" fill="url(#paint4_linear)"></path><path d="M131.139 28.5681V30.6001H136.235V34.4628H131.139V36.7764H136.92V40.8604H126.003V24.4841H136.92V28.5681H131.139Z" fill="url(#paint5_linear)"></path><path d="M150.797 38.587C150.313 39.3515 149.608 39.9349 148.682 40.3776C147.755 40.8202 146.648 41.0415 145.379 41.0415C143.425 41.0415 141.794 40.5787 140.525 39.6734C139.256 38.748 138.551 37.4202 138.45 35.6296H143.908C143.989 36.5752 144.412 37.0379 145.157 37.0379C145.419 37.0379 145.641 36.9776 145.802 36.8367C145.963 36.6959 146.043 36.4947 146.043 36.2332C146.043 35.8509 145.842 35.5492 145.459 35.3279C145.056 35.1065 144.432 34.845 143.546 34.5432C142.519 34.2012 141.653 33.8592 140.968 33.4971C140.283 33.135 139.679 32.6119 139.175 31.9279C138.672 31.2438 138.41 30.3385 138.41 29.232C138.41 28.1657 138.692 27.2604 139.236 26.516C139.78 25.7716 140.525 25.2083 141.471 24.8261C142.418 24.4438 143.485 24.2426 144.674 24.2426C146.627 24.2426 148.198 24.7054 149.347 25.6107C150.495 26.516 151.139 27.8237 151.24 29.5338H145.701C145.62 28.6687 145.278 28.2462 144.634 28.2462C144.412 28.2462 144.231 28.3065 144.11 28.4474C143.969 28.5882 143.908 28.7693 143.908 29.0308C143.908 29.3929 144.11 29.6746 144.493 29.8959C144.895 30.1172 145.5 30.3787 146.325 30.6805C147.373 31.0426 148.239 31.4249 148.924 31.787C149.608 32.1492 150.213 32.6722 150.736 33.3764C151.26 34.0805 151.522 34.9858 151.522 36.0722C151.542 36.9776 151.3 37.8225 150.797 38.587Z" fill="url(#paint6_linear)"></path><path d="M106.748 63.9562H101.29L100.484 66.4308H95.0662L101.068 50.0545H106.99L112.972 66.4308H107.554L106.748 63.9562ZM105.499 60.0935L104.009 55.5468L102.518 60.0935H105.499Z" fill="url(#paint7_linear)"></path><path d="M126.064 64.1575C125.58 64.922 124.875 65.5054 123.949 65.948C123.022 66.3906 121.914 66.6119 120.646 66.6119C118.692 66.6119 117.06 66.1492 115.792 65.2439C114.523 64.3184 113.818 62.9906 113.717 61.2001H119.175C119.256 62.1457 119.679 62.6084 120.424 62.6084C120.686 62.6084 120.907 62.548 121.069 62.4072C121.23 62.2664 121.31 62.0652 121.31 61.8036C121.31 61.4214 121.109 61.1196 120.726 60.8983C120.323 60.677 119.699 60.4155 118.813 60.1338C117.786 59.7918 116.919 59.4498 116.235 59.0877C115.55 58.7255 114.946 58.2025 114.442 57.5184C113.939 56.8344 113.677 55.9291 113.677 54.8226C113.677 53.7563 113.959 52.851 114.503 52.1066C115.046 51.3622 115.792 50.7989 116.738 50.4167C117.685 50.0344 118.752 49.8332 119.941 49.8332C121.894 49.8332 123.465 50.2959 124.613 51.2013C125.761 52.1066 126.406 53.4143 126.507 55.1243H120.968C120.887 54.2593 120.545 53.8368 119.9 53.8368C119.679 53.8368 119.498 53.8971 119.377 54.038C119.236 54.1788 119.175 54.3599 119.175 54.6214C119.175 54.9835 119.377 55.2652 119.759 55.4865C120.162 55.7078 120.766 55.9693 121.592 56.2711C122.64 56.6332 123.506 57.0155 124.19 57.3776C124.875 57.7397 125.479 58.2628 126.003 58.967C126.527 59.6711 126.789 60.5764 126.789 61.6628C126.789 62.548 126.547 63.393 126.064 64.1575Z" fill="url(#paint8_linear)"></path><path d="M141.471 50.0745V54.1384H137.121V66.4308H131.985V54.1384H127.675V50.0745H141.471Z" fill="url(#paint9_linear)"></path><path d="M151.099 66.4308L147.997 60.5562V66.4308H142.861V50.0545H150.495C151.824 50.0545 152.952 50.2959 153.899 50.7586C154.845 51.2213 155.55 51.8651 156.013 52.6699C156.477 53.4746 156.718 54.4 156.718 55.406C156.718 56.4923 156.416 57.4781 155.812 58.3231C155.208 59.1681 154.322 59.7716 153.194 60.1539L156.759 66.4107H151.099V66.4308ZM150.031 57.1361C150.535 57.1361 150.898 57.0154 151.139 56.7941C151.381 56.5728 151.502 56.2107 151.502 55.748C151.502 55.3255 151.381 54.9835 151.119 54.7219C150.857 54.4805 150.495 54.3598 150.011 54.3598H147.977V57.1361H150.031Z" fill="url(#paint10_linear)"></path><path d="M170.595 50.8592C171.884 51.5834 172.891 52.5692 173.637 53.8568C174.382 55.1444 174.765 56.5728 174.765 58.1823C174.765 59.7917 174.382 61.2201 173.637 62.5077C172.891 63.7953 171.864 64.7811 170.575 65.5053C169.286 66.2296 167.876 66.5917 166.346 66.5917C164.795 66.5917 163.385 66.2296 162.096 65.5053C160.807 64.7811 159.78 63.7752 159.034 62.5077C158.269 61.2201 157.906 59.7917 157.906 58.1823C157.906 56.5728 158.289 55.1444 159.034 53.8568C159.8 52.5692 160.807 51.5834 162.096 50.8592C163.385 50.1349 164.795 49.7929 166.346 49.7929C167.896 49.7929 169.306 50.155 170.595 50.8592ZM163.969 55.5065C163.405 56.1704 163.143 57.0556 163.143 58.1823C163.143 59.2888 163.425 60.174 163.969 60.8379C164.533 61.5018 165.318 61.8237 166.346 61.8237C167.373 61.8237 168.158 61.5018 168.702 60.8379C169.266 60.174 169.528 59.3089 169.528 58.1823C169.528 57.0556 169.246 56.1704 168.702 55.5065C168.138 54.8426 167.353 54.5207 166.346 54.5207C165.318 54.5207 164.513 54.8627 163.969 55.5065Z" fill="url(#paint11_linear)"></path><path d="M192.328 66.4308H187.192L181.754 58.2024V66.4308H176.618V50.0545H181.754L187.192 58.4237V50.0545H192.328V66.4308Z" fill="url(#paint12_linear)"></path><path d="M205.158 63.9562H199.699L198.894 66.4308H193.496L199.498 50.0545H205.419L211.401 66.4308H205.983L205.158 63.9562ZM203.909 60.0935L202.418 55.5468L200.928 60.0935H203.909Z" fill="url(#paint13_linear)"></path><path d="M217.565 50.0745V59.3089C217.565 60.0734 217.726 60.6568 218.068 61.0994C218.39 61.542 218.934 61.7633 219.679 61.7633C220.425 61.7633 220.968 61.542 221.331 61.0994C221.694 60.6568 221.855 60.0532 221.855 59.3089V50.0745H226.97V59.3089C226.97 60.858 226.648 62.1858 226.004 63.2923C225.359 64.3988 224.473 65.2236 223.345 65.787C222.217 66.3503 220.968 66.6118 219.579 66.6118C218.189 66.6118 216.96 66.3302 215.893 65.787C214.825 65.2236 213.98 64.3988 213.375 63.3124C212.771 62.226 212.469 60.8781 212.469 59.3089V50.0745H217.565Z" fill="url(#paint14_linear)"></path><path d="M242.056 50.0745V54.1384H237.706V66.4308H232.57V54.1384H228.26V50.0745H242.056Z" fill="url(#paint15_linear)"></path><path d="M253.94 63.9562H248.481L247.676 66.4308H242.278L248.28 50.0545H254.201L260.183 66.4308H254.765L253.94 63.9562ZM252.691 60.0935L251.2 55.5468L249.71 60.0935H252.691Z" fill="url(#paint16_linear)"></path><path d="M273.275 64.1575C272.792 64.922 272.087 65.5054 271.16 65.948C270.234 66.3906 269.126 66.6119 267.857 66.6119C265.903 66.6119 264.272 66.1492 263.003 65.2439C261.734 64.3184 261.029 62.9906 260.929 61.2001H266.387C266.467 62.1457 266.89 62.6084 267.636 62.6084C267.897 62.6084 268.119 62.548 268.28 62.4072C268.441 62.2664 268.522 62.0652 268.522 61.8036C268.522 61.4214 268.32 61.1196 267.938 60.8983C267.535 60.677 266.91 60.4155 266.024 60.1338C264.997 59.7918 264.131 59.4498 263.446 59.0877C262.761 58.7255 262.157 58.2025 261.654 57.5184C261.15 56.8344 260.888 55.9291 260.888 54.8226C260.888 53.7563 261.17 52.851 261.714 52.1066C262.258 51.3622 263.003 50.7989 263.95 50.4167C264.896 50.0344 265.964 49.8332 267.152 49.8332C269.106 49.8332 270.677 50.2959 271.825 51.2013C272.973 52.1066 273.617 53.4143 273.718 55.1243H268.179C268.099 54.2593 267.756 53.8368 267.112 53.8368C266.89 53.8368 266.709 53.8971 266.588 54.038C266.447 54.1788 266.387 54.3599 266.387 54.6214C266.387 54.9835 266.588 55.2652 266.971 55.4865C267.374 55.7078 267.978 55.9693 268.804 56.2711C269.851 56.6332 270.717 57.0155 271.402 57.3776C272.087 57.7397 272.691 58.2628 273.215 58.967C273.738 59.6711 274 60.5764 274 61.6628C274 62.548 273.758 63.393 273.275 64.1575Z" fill="url(#paint17_linear)"></path><defs><linearGradient id="paint0_linear" x1="-4.08292e-06" y1="102" x2="236.043" y2="-56.5194" gradientUnits="userSpaceOnUse"><stop stop-color="#1F31BF"></stop><stop offset="1" stop-color="#F51573"></stop></linearGradient><linearGradient id="paint1_linear" x1="-4.08292e-06" y1="102" x2="236.043" y2="-56.5194" gradientUnits="userSpaceOnUse"><stop stop-color="#1F31BF"></stop><stop offset="1" stop-color="#F51573"></stop></linearGradient><linearGradient id="paint2_linear" x1="-4.08292e-06" y1="102" x2="236.043" y2="-56.5194" gradientUnits="userSpaceOnUse"><stop stop-color="#1F31BF"></stop><stop offset="1" stop-color="#F51573"></stop></linearGradient><linearGradient id="paint3_linear" x1="-4.08292e-06" y1="102" x2="236.043" y2="-56.5194" gradientUnits="userSpaceOnUse"><stop stop-color="#1F31BF"></stop><stop offset="1" stop-color="#F51573"></stop></linearGradient><linearGradient id="paint4_linear" x1="-4.08292e-06" y1="102" x2="236.043" y2="-56.5194" gradientUnits="userSpaceOnUse"><stop stop-color="#1F31BF"></stop><stop offset="1" stop-color="#F51573"></stop></linearGradient><linearGradient id="paint5_linear" x1="-4.08292e-06" y1="102" x2="236.043" y2="-56.5194" gradientUnits="userSpaceOnUse"><stop stop-color="#1F31BF"></stop><stop offset="1" stop-color="#F51573"></stop></linearGradient><linearGradient id="paint6_linear" x1="-4.08292e-06" y1="102" x2="236.043" y2="-56.5194" gradientUnits="userSpaceOnUse"><stop stop-color="#1F31BF"></stop><stop offset="1" stop-color="#F51573"></stop></linearGradient><linearGradient id="paint7_linear" x1="-4.08292e-06" y1="102" x2="236.043" y2="-56.5194" gradientUnits="userSpaceOnUse"><stop stop-color="#1F31BF"></stop><stop offset="1" stop-color="#F51573"></stop></linearGradient><linearGradient id="paint8_linear" x1="-4.08292e-06" y1="102" x2="236.043" y2="-56.5194" gradientUnits="userSpaceOnUse"><stop stop-color="#1F31BF"></stop><stop offset="1" stop-color="#F51573"></stop></linearGradient><linearGradient id="paint9_linear" x1="-4.08292e-06" y1="102" x2="236.043" y2="-56.5194" gradientUnits="userSpaceOnUse"><stop stop-color="#1F31BF"></stop><stop offset="1" stop-color="#F51573"></stop></linearGradient><linearGradient id="paint10_linear" x1="-4.08292e-06" y1="102" x2="236.043" y2="-56.5194" gradientUnits="userSpaceOnUse"><stop stop-color="#1F31BF"></stop><stop offset="1" stop-color="#F51573"></stop></linearGradient><linearGradient id="paint11_linear" x1="-4.08292e-06" y1="102" x2="236.043" y2="-56.5194" gradientUnits="userSpaceOnUse"><stop stop-color="#1F31BF"></stop><stop offset="1" stop-color="#F51573"></stop></linearGradient><linearGradient id="paint12_linear" x1="-4.08292e-06" y1="102" x2="236.043" y2="-56.5194" gradientUnits="userSpaceOnUse"><stop stop-color="#1F31BF"></stop><stop offset="1" stop-color="#F51573"></stop></linearGradient><linearGradient id="paint13_linear" x1="-4.08292e-06" y1="102" x2="236.043" y2="-56.5194" gradientUnits="userSpaceOnUse"><stop stop-color="#1F31BF"></stop><stop offset="1" stop-color="#F51573"></stop></linearGradient><linearGradient id="paint14_linear" x1="-4.08292e-06" y1="102" x2="236.043" y2="-56.5194" gradientUnits="userSpaceOnUse"><stop stop-color="#1F31BF"></stop><stop offset="1" stop-color="#F51573"></stop></linearGradient><linearGradient id="paint15_linear" x1="-4.08292e-06" y1="102" x2="236.043" y2="-56.5194" gradientUnits="userSpaceOnUse"><stop stop-color="#1F31BF"></stop><stop offset="1" stop-color="#F51573"></stop></linearGradient><linearGradient id="paint16_linear" x1="-4.08292e-06" y1="102" x2="236.043" y2="-56.5194" gradientUnits="userSpaceOnUse"><stop stop-color="#1F31BF"></stop><stop offset="1" stop-color="#F51573"></stop></linearGradient><linearGradient id="paint17_linear" x1="-4.08292e-06" y1="102" x2="236.043" y2="-56.5194" gradientUnits="userSpaceOnUse"><stop stop-color="#1F31BF"></stop><stop offset="1" stop-color="#F51573"></stop></linearGradient></defs></svg> 